<svg width="70" height="49" viewBox="0 0 70 49" fill="none" xmlns="http://www.w3.org/2000/svg">
<path d="M68.5373 7.66684C67.7322 4.649 65.3602 2.27225 62.3485 1.46566C56.8896 0 35 0 35 0C35 0 13.1105 0 7.65145 1.46566C4.63976 2.27238 2.26778 4.649 1.46272 7.66684C0 13.1368 0 24.5495 0 24.5495C0 24.5495 0 35.9622 1.46272 41.4322C2.26778 44.45 4.63976 46.7278 7.65145 47.5343C13.1105 49 35 49 35 49C35 49 56.8895 49 62.3485 47.5343C65.3602 46.7278 67.7322 44.45 68.5373 41.4322C70 35.9622 70 24.5495 70 24.5495C70 24.5495 70 13.1368 68.5373 7.66684ZM27.8409 34.9114V14.1877L46.1362 24.5498L27.8409 34.9114Z" fill="#EE0000"/>
</svg>
